<?xml version="1.0" encoding="UTF-8" standalone="no"?>
<svg
   xmlns:dc="http://purl.org/dc/elements/1.1/"
   xmlns:cc="http://creativecommons.org/ns#"
   xmlns:rdf="http://www.w3.org/1999/02/22-rdf-syntax-ns#"
   xmlns:svg="http://www.w3.org/2000/svg"
   xmlns="http://www.w3.org/2000/svg"
   xmlns:sodipodi="http://sodipodi.sourceforge.net/DTD/sodipodi-0.dtd"
   xmlns:inkscape="http://www.inkscape.org/namespaces/inkscape"
   viewBox="0 0 484.00001 483.99999"
   version="1.1"
   id="svg54"
   sodipodi:docname="logo.svg"
   width="484"
   height="484"
   inkscape:version="0.92.3 (unknown)">
  <defs
     id="defs58" />
  <sodipodi:namedview
     pagecolor="#ffffff"
     bordercolor="#666666"
     borderopacity="1"
     objecttolerance="10"
     gridtolerance="10"
     guidetolerance="10"
     inkscape:pageopacity="0"
     inkscape:pageshadow="2"
     inkscape:window-width="1854"
     inkscape:window-height="1020"
     id="namedview56"
     showgrid="false"
     fit-margin-top="0"
     fit-margin-left="0"
     fit-margin-right="0"
     fit-margin-bottom="0"
     inkscape:zoom="0.89560422"
     inkscape:cx="-119.88249"
     inkscape:cy="272.33838"
     inkscape:window-x="66"
     inkscape:window-y="36"
     inkscape:window-maximized="1"
     inkscape:current-layer="svg54" />
  <g
     id="g947"
     transform="translate(108.37056,-2.8175404)">
    <g
       id="g6"
       transform="translate(-66.37056,-275.95696)">
      <path
         id="path2"
         d="m 72.2,322.85 h 255.6 a 16.61,16.61 0 0 1 16.61,16.61 V 704.17 A 16.61,16.61 0 0 1 327.8,720.779 H 72.2 A 16.61,16.61 0 0 1 55.59,704.17 V 339.46 A 16.61,16.61 0 0 1 72.2,322.85"
         inkscape:connector-curvature="0"
         style="fill:#aa4400" />
      <path
         id="path4"
         d="m 73.466,324.82 h 253.07 a 16.445,16.445 0 0 1 16.446,16.446 v 361.1 a 16.445,16.445 0 0 1 -16.446,16.446 H 73.466 A 16.445,16.445 0 0 1 57.02,702.366 v -361.1 A 16.445,16.445 0 0 1 73.466,324.82"
         inkscape:connector-curvature="0"
         style="fill:#7e3500" />
    </g>
    <g
       id="g40"
       transform="translate(-66.37056,-275.95696)">
      <path
         id="path8"
         d="M 82.31,347.53 H 317.69 V 680.42 H 82.31 Z"
         rx="0"
         ry="0"
         inkscape:connector-curvature="0"
         style="fill:#666666" />
      <path
         id="path10"
         d="m 85.738,352.38 h 228.52 v 323.2 H 85.738 Z"
         inkscape:connector-curvature="0"
         style="fill:#ffffff" />
      <path
         id="path12"
         d="m 172.71,429.29 h 125.3 v 4.163 h -125.3 z"
         inkscape:connector-curvature="0"
         style="fill:#b6b6b6;fill-rule:evenodd;stroke-width:1.25" />
      <path
         id="path14"
         d="m 172.71,450.47 h 125.3 v 4.162 h -125.3 z"
         inkscape:connector-curvature="0"
         style="fill:#b6b6b6;fill-rule:evenodd;stroke-width:1.25" />
      <path
         id="path16"
         d="m 196.36,288.77 c -15.851,0 -28.596,12.745 -28.596,28.596 v 7.3145 c 0,2.1595 0.2458,4.2351 0.695,6.2554 h -24.591 c -4.5473,0 -8.2081,3.6608 -8.2081,8.2081 v 23.565 h 128.69 v -23.564 c 0,-4.5473 -3.6608,-8.2081 -8.2081,-8.2081 h -24.558 c 0.4486,-2.0189 0.695,-4.0976 0.695,-6.2554 v -7.3145 c 0,-15.851 -12.778,-28.596 -28.629,-28.596 h -7.2814 z m 3.6407,18.932 c 7.3591,0 13.338,5.979 13.338,13.338 0,7.3591 -5.979,13.305 -13.338,13.305 -7.3591,0 -13.305,-5.9459 -13.305,-13.305 0,-7.3591 5.946,-13.338 13.305,-13.338 z"
         inkscape:connector-curvature="0"
         style="fill:#b6b6b6" />
      <path
         id="path18"
         d="m 102.56,418.81 h 55.418 v 55.418 H 102.56 Z"
         inkscape:connector-curvature="0"
         style="fill:none;stroke:#4d4d4d;stroke-width:4" />
      <path
         id="path20"
         d="m 102.56,597.04 h 55.418 v 55.419 H 102.56 Z"
         inkscape:connector-curvature="0"
         style="fill:none;stroke:#4d4d4d;stroke-width:4" />
      <path
         id="path22"
         d="m 172.71,471.65 h 125.3 v 4.162 h -125.3 z"
         inkscape:connector-curvature="0"
         style="fill:#b6b6b6;fill-rule:evenodd;stroke-width:1.25" />
      <path
         id="path24"
         d="m 172.71,514.02 h 125.3 v 4.163 h -125.3 z"
         inkscape:connector-curvature="0"
         style="fill:#b6b6b6;fill-rule:evenodd;stroke-width:1.25" />
      <path
         id="path26"
         d="m 172.71,535.2 h 125.3 v 4.163 h -125.3 z"
         inkscape:connector-curvature="0"
         style="fill:#b6b6b6;fill-rule:evenodd;stroke-width:1.25" />
      <path
         id="path28"
         d="m 172.71,556.38 h 125.3 v 4.163 h -125.3 z"
         inkscape:connector-curvature="0"
         style="fill:#b6b6b6;fill-rule:evenodd;stroke-width:1.25" />
      <path
         id="path30"
         d="m 172.71,598.74 h 125.3 v 4.162 h -125.3 z"
         inkscape:connector-curvature="0"
         style="fill:#b6b6b6;fill-rule:evenodd;stroke-width:1.25" />
      <path
         id="path32"
         d="m 172.71,619.93 h 125.3 v 4.162 h -125.3 z"
         inkscape:connector-curvature="0"
         style="fill:#b6b6b6;fill-rule:evenodd;stroke-width:1.25" />
      <path
         id="path34"
         d="m 172.71,641.11 h 125.3 v 4.163 h -125.3 z"
         inkscape:connector-curvature="0"
         style="fill:#b6b6b6;fill-rule:evenodd;stroke-width:1.25" />
      <path
         id="path36"
         d="m 102.56,507.93 h 55.418 v 55.419 H 102.56 Z"
         inkscape:connector-curvature="0"
         style="fill:none;stroke:#4d4d4d;stroke-width:4" />
      <path
         id="path38"
         d="m 162.51,394.84 -12.335,4.8743 c -0.6033,1.1073 -1.1554,2.2532 -1.6569,3.4242 -1.5008,3.4303 -3.1551,6.7554 -4.8454,10.07 -2.5451,5.2208 -4.9179,10.553 -7.5804,15.702 -2.8101,5.8285 -5.6709,11.622 -8.2858,17.569 -0.301,0.6777 -0.6019,1.3514 -0.9068,2.027 -1.2608,-2.3466 -2.5255,-4.6882 -3.7174,-7.0787 l -0.5602,-1.1981 c -0.1647,-0.3927 -0.309,-0.7855 -0.4831,-1.173 -0.4132,-0.9195 -0.9611,-1.7822 -1.2515,-2.7664 l -12.057,6.4755 c 1.1154,1.5147 2.0463,3.1512 2.916,4.8557 1.5671,2.7049 3.1235,5.4221 4.5667,8.2144 1.0721,2.0733 2.0882,4.1843 3.0618,6.3192 0.0541,0.1086 0.4583,0.9382 0.5694,1.0737 3.4586,4.2143 10.952,-5.255 12.762,-6.3915 0.2499,-0.1568 0.2115,-0.601 0.3187,-0.9008 0.1448,-0.4051 0.2889,-0.808 0.4363,-1.212 1.6052,-4.3536 3.5676,-8.5195 5.3137,-12.8 2.499,-5.8729 5.1482,-11.659 7.9237,-17.37 2.7165,-5.3009 5.4,-10.619 8.1479,-15.899 1.9514,-3.3746 3.6803,-6.9018 5.4992,-10.366 0.6192,-1.2319 1.3982,-2.3353 2.1644,-3.4482 z"
         inkscape:connector-curvature="0"
         style="fill:#ff0000" />
    </g>
    <g
       id="g46"
       transform="matrix(0.5879,0,0,0.5879,427.45044,191.26303)"
       style="fill:#ff0000">
      <path
         id="path42"
         d="m -645.21,240.1 c 2.7163,2.3071 5.7846,4.1435 8.6179,6.2907 1.0666,0.8083 2.0853,1.6779 3.1279,2.5168 8.0327,6.3913 16.08,12.758 24.275,18.94 6.8048,5.1361 13.706,10.147 20.727,14.984 2.9104,2.0047 5.8679,3.9845 8.4676,6.3938 0.0151,0.014 2.6937,2.6827 2.8129,2.8015 1.3275,1.4915 2.5811,3.0469 3.7653,4.6539 l -18.422,7.145 c -0.9443,-1.5761 -1.9961,-3.0868 -3.1372,-4.5277 -3.0758,-3.4614 -6.3817,-6.6712 -10.158,-9.3825 -6.509,-5.245 -12.854,-10.688 -19.439,-15.838 -4.3275,-3.3813 -8.6412,-6.7805 -13.101,-9.9882 -3.1381,-2.2572 -5.282,-3.6577 -8.427,-5.8459 -1.184,-0.8238 -2.3571,-1.6633 -3.5357,-2.4949 -4.3042,-2.6545 -8.7242,-5.4615 -13.62,-6.8783 z"
         inkscape:connector-curvature="0" />
      <path
         id="path44"
         d="m -656.59,300.53 c 4.2452,-6.2537 8.6436,-12.403 12.932,-18.628 5.1738,-7.6836 10.834,-15.06 17.321,-21.689 1.1842,-1.2101 2.4386,-2.3493 3.6579,-3.524 6.8504,-6.1562 14.155,-11.782 21.68,-17.083 9.7659,-6.3351 20.097,-11.855 30.243,-17.49 0.9625,-0.5346 1.996,-0.9299 2.9925,-1.3982 4.2017,-1.9746 1.2363,-0.6132 5.1881,-2.4068 3.6513,-1.6115 7.3379,-3.1396 11.012,-4.6968 1.8486,-0.7304 3.4866,-1.7769 5.1766,-2.7965 l -20.192,16.337 c -1.6357,0.8808 -3.3501,1.5927 -5.0613,2.3143 -3.4986,1.4852 -7.0506,2.8429 -10.529,4.376 -2.2952,1.0069 -2.3952,1.0354 -4.7941,2.1581 -0.9226,0.4318 -3.6307,1.8409 -2.7597,1.3127 33.37,-20.238 18.285,-10.514 10.781,-6.3716 -7.7891,5.1878 -15.179,10.953 -22.341,16.974 -1.2775,1.1463 -2.5954,2.2491 -3.8324,3.439 -6.5964,6.3456 -12.452,13.429 -17.259,21.224 -0.8654,1.3662 -1.7164,2.7416 -2.5962,4.0986 -2.7387,4.224 -5.8238,8.3286 -7.5335,13.115 l -24.086,10.737 z"
         inkscape:connector-curvature="0" />
    </g>
    <g
       id="g50"
       transform="translate(-66.37056,-275.95696)">
      <path
         id="path48"
         d="m 178.82,493.95 -13.176,1.5157 c -0.8693,0.9134 -1.6993,1.8774 -2.4867,2.8787 -2.3375,2.925 -4.7961,5.7086 -7.2865,8.4726 -3.8096,4.3842 -7.4817,8.9206 -11.386,13.205 -4.2229,4.9026 -8.4857,9.7583 -12.551,14.825 -0.4661,0.5767 -0.9312,1.1496 -1.4005,1.7232 -0.6105,-2.593 -1.2261,-5.1821 -1.7586,-7.7997 l -0.2311,-1.3023 c -0.0574,-0.422 -0.0952,-0.8387 -0.1631,-1.258 -0.1611,-0.9951 -0.467,-1.9702 -0.4929,-2.9961 l -13.322,3.1342 c 0.6853,1.7518 1.161,3.5734 1.5599,5.445 0.8136,3.0183 1.6138,6.0458 2.285,9.1165 0.499,2.2802 0.934,4.5822 1.322,6.8963 0.0241,0.1189 0.1998,1.0249 0.2721,1.1844 2.2499,4.9659 11.939,-2.2414 13.982,-2.8706 0.2819,-0.0867 0.3598,-0.5258 0.541,-0.7876 0.2448,-0.3539 0.4882,-0.7057 0.7352,-1.0577 2.6773,-3.7898 5.6511,-7.3058 8.4456,-10.989 3.9339,-5.026 7.9904,-9.9296 12.149,-14.727 3.9958,-4.4172 7.9644,-8.8598 11.985,-13.248 2.7583,-2.7546 5.3412,-5.7141 7.9948,-8.5899 0.9169,-1.0297 1.9549,-1.8939 2.9831,-2.7705 z"
         inkscape:connector-curvature="0"
         style="fill:#ff0000" />
    </g>
  </g>
  <metadata
     id="metadata52">
    <rdf:RDF>
      <cc:Work>
        <dc:format>image/svg+xml</dc:format>
        <dc:type
           rdf:resource="http://purl.org/dc/dcmitype/StillImage" />
        <cc:license
           rdf:resource="http://creativecommons.org/publicdomain/zero/1.0/" />
        <dc:publisher>
          <cc:Agent
             rdf:about="http://openclipart.org/">
            <dc:title>Openclipart</dc:title>
          </cc:Agent>
        </dc:publisher>
        <dc:title>Clipboard</dc:title>
        <dc:date>2013-06-20T07:43:00</dc:date>
        <dc:description>A simple clipboard and paper</dc:description>
        <dc:source>https://openclipart.org/detail/179428/clipboard-by-hellocatfood-179428</dc:source>
        <dc:creator>
          <cc:Agent>
            <dc:title>hellocatfood</dc:title>
          </cc:Agent>
        </dc:creator>
        <dc:subject>
          <rdf:Bag>
            <rdf:li>board</rdf:li>
            <rdf:li>cardboard</rdf:li>
            <rdf:li>checkbox</rdf:li>
            <rdf:li>clipboard</rdf:li>
            <rdf:li>filing</rdf:li>
            <rdf:li>paper</rdf:li>
          </rdf:Bag>
        </dc:subject>
      </cc:Work>
      <cc:License
         rdf:about="http://creativecommons.org/publicdomain/zero/1.0/">
        <cc:permits
           rdf:resource="http://creativecommons.org/ns#Reproduction" />
        <cc:permits
           rdf:resource="http://creativecommons.org/ns#Distribution" />
        <cc:permits
           rdf:resource="http://creativecommons.org/ns#DerivativeWorks" />
      </cc:License>
    </rdf:RDF>
  </metadata>
</svg>
